# xmcd
#
# Track frame offsets: 
#        150
#        12402
#        24178
#        34739
#        49029
#        64864
#        77628
#        89912
#        96081
#        105683
#        114776
#
# Disc length: 1633 seconds
#
# Revision: 0
# Processed by: cddbd v1.5.2PL0 Copyright (c) Steve Scherf et al.
# Submitted via: ExactAudioCopy v1.1
#
DISCID=81065f0b
DTITLE=The Petersen Family Band - Travelin' Shoes
DYEAR=1900
DGENRE=Gospel
TTITLE0=Everytime You Say Goodbye
TTITLE1=Steppin' On The Clouds
TTITLE2=A Place On Calvary
TTITLE3=I'm Gonna Move
TTITLE4=I Believe
TTITLE5=I Have A Father
TTITLE6=Wicked Path Of Sin
TTITLE7=He's Still Workin' On Me
TTITLE8=Sittin' On Top Of The World
TTITLE9=Lee Highway Blues
TTITLE10=Travelin' Shoes
EXTD=
EXTT0=
EXTT1=
EXTT2=
EXTT3=
EXTT4=
EXTT5=
EXTT6=
EXTT7=
EXTT8=
EXTT9=
EXTT10=
PLAYORDER=
